<svg width="593" height="499" viewBox="0 0 593 499" fill="none" xmlns="http://www.w3.org/2000/svg">
<path d="M219.181 175.158C222.703 161.51 230.034 154.288 240.661 146.943C246.835 142.677 264.015 136.138 263.638 128.934C263.249 121.487 247.656 97.0568 245.872 88.0576C243.097 76.7343 243.811 65.6308 244.254 54.2056C246.836 -12.4122 336.112 -20.5052 347.715 46.0331C349.725 57.5596 349.335 68.5371 348.21 80.4177C347.498 90.7762 347.16 92.5969 343.005 102.562C337.815 115.021 324.352 124.423 333.892 137.279C350.46 145.158 371.768 156.476 375.098 176.628C375.915 188.236 376.77 196.53 371.692 207.276C370.965 208.209 369.615 210.024 369.578 211.217C369.203 222.436 369.69 234.115 368.887 245.288L368.242 248.977C366.217 252.306 364.447 254.495 361.162 256.778C358.612 258.692 355.087 260.381 354.165 262.711C354.24 268.282 354.097 276.663 354.502 281.999C353.512 286.195 353.392 286.982 349.567 289.359C349.095 289.652 348.622 289.938 348.142 290.216V327.284C348.157 334.435 348.517 347.34 347.107 354.088C345.232 356.617 344.243 358.254 341.558 360.005L340.508 359.936C331.005 362.431 264.181 360.969 251.935 359.782C247.91 357.007 246.45 354.739 245.79 349.971C244.573 335.752 245.415 311.6 244.727 295.8L245.24 291.45C244.328 290.923 243.424 290.38 242.53 289.822C238.95 287.575 238.921 287.266 237.953 283.016L237.919 281.042C236.755 277.071 237.151 265.498 237.193 260.986C233.11 259.282 231.713 258.615 227.994 256.247C227.592 255.715 227.206 255.17 226.836 254.613C220.72 245.424 220.679 218.622 222.644 208.947C221.795 207.177 220.603 205.1 219.657 203.337C218.803 199.867 218.29 195.402 217.773 191.781C217.543 185.38 217.636 181.36 219.181 175.158Z" fill="#E2BE54"/>
<path d="M219.181 175.158C222.703 161.51 230.034 154.288 240.661 146.943C246.835 142.677 264.015 136.138 263.638 128.934C263.249 121.487 247.656 97.0568 245.872 88.0576C243.097 76.7343 243.811 65.6308 244.254 54.2056C246.836 -12.4122 336.112 -20.5052 347.715 46.0331C349.725 57.5596 349.335 68.5371 348.21 80.4177C347.498 90.7762 347.16 92.5969 343.005 102.562C337.815 115.021 324.352 124.423 333.892 137.279C350.46 145.158 371.768 156.476 375.098 176.628C375.915 188.236 376.77 196.53 371.692 207.276C370.965 208.209 369.615 210.024 369.578 211.217C369.203 222.436 369.69 234.115 368.887 245.288L368.242 248.977C366.217 252.306 364.447 254.495 361.162 256.778C358.612 258.692 355.087 260.381 354.165 262.711L354.21 260.948C352.14 257.158 354.69 255.889 352.207 252.703C352.177 250.004 352.56 245.706 352.725 242.888C352.447 241.57 351.975 232.877 351.795 230.835L350.287 232.818L346.328 232.424C345.863 225.054 347.235 219.35 345.787 211.745C348.832 196.762 372.645 206.985 364.89 178.973C359.213 158.438 343.732 156.098 327.09 146.306C323.4 154.281 319.815 158.242 314.385 165.052C312.705 168.536 308.235 171.933 304.95 173.858L309.03 172.87C305.303 175.918 303.652 174.524 301.552 177.574L297.195 175.264C293.355 175.374 293.385 176.163 289.612 178.467C287.145 177.456 284.565 175.901 282.21 174.585C285.03 174.205 286.432 174.272 288.765 172.65C283.995 170.245 280.635 168.221 277.091 164.234C273.016 160.862 268.629 153.009 265.848 148.332L265.09 146.641C254.46 150.547 235.075 161.442 230.13 172.092C229.855 172.688 229.602 173.294 229.372 173.91C227.014 175.199 227.099 177.038 226.229 179.514C225.767 178.252 225.904 177.819 225.884 176.443C225.574 179.88 223.129 183.614 219.696 184.359C218.939 182.843 219.682 178.591 219.181 175.158Z" fill="#F2DD7F"/>
<path d="M361.35 209.233C363.892 206.954 368.49 207.202 371.692 207.276C370.965 208.209 369.615 210.024 369.578 211.217C369.203 222.436 369.69 234.115 368.887 245.288L368.242 248.977C366.217 252.306 364.447 254.495 361.162 256.778C358.612 258.692 355.087 260.381 354.165 262.711L354.21 260.948C352.14 257.158 354.69 255.889 352.207 252.703C352.177 250.004 352.56 245.706 352.725 242.888C353.16 239.478 353.46 229.256 354.705 227.343C355.312 218.004 351.907 214.312 361.35 209.233Z" fill="#755416"/>
<path d="M361.35 209.233C363.892 206.954 368.49 207.202 371.692 207.276C370.965 208.209 369.615 210.024 369.578 211.217C369.203 222.436 369.69 234.115 368.887 245.288C365.287 242.463 368.287 243.184 365.662 240.785L365.235 241.799C363.015 243.245 364.2 242.863 361.582 243.021L360.277 235.736C359.992 225.809 359.977 219.03 361.35 209.233Z" fill="#DABB63"/>
<path d="M360.277 235.736L361.582 243.021C364.2 242.863 363.015 243.245 365.235 241.799L365.662 240.785C368.287 243.184 365.287 242.463 368.887 245.288L368.242 248.977C366.217 252.306 364.447 254.495 361.162 256.778C358.612 258.692 355.087 260.381 354.165 262.711L354.21 260.948C354.615 257.828 354.75 253.113 354.953 249.857L356.745 250.767C360.675 244.679 360.285 243.099 360.277 235.736Z" fill="#C69E3C"/>
<path d="M356.745 250.767L357.585 251.38C360.555 249.381 360.952 247.714 363.517 247.116L365.04 248.409C364.65 252.937 359.602 254.399 361.162 256.778C358.612 258.692 355.087 260.381 354.165 262.711L354.21 260.948C354.615 257.828 354.75 253.113 354.953 249.857L356.745 250.767Z" fill="#AD8223"/>
<path d="M352.725 242.888C353.16 239.478 353.46 229.256 354.705 227.343C354.712 233.964 354.48 243.394 354.953 249.857C354.75 253.113 354.615 257.828 354.21 260.948C352.14 257.158 354.69 255.889 352.207 252.703C352.177 250.004 352.56 245.706 352.725 242.888Z" fill="#F1DB77"/>
<path d="M333.892 137.279C331.365 135.892 330.127 134.441 328.642 131.942C322.177 121.08 335.28 112.914 340.155 102.454C344.573 92.9855 345.338 90.6217 348.21 80.4177C347.498 90.7762 347.16 92.5969 343.005 102.562C337.815 115.021 324.352 124.423 333.892 137.279Z" fill="#755416"/>
<path d="M314.385 165.052C312.705 168.536 308.235 171.933 304.95 173.858L309.03 172.87C305.303 175.918 303.652 174.524 301.552 177.574L297.195 175.264C293.355 175.374 293.385 176.163 289.612 178.467C287.145 177.456 284.565 175.901 282.21 174.585C285.03 174.205 286.432 174.272 288.765 172.65C290.19 171.386 294.562 168.554 296.347 167.336C298.132 169.167 300.39 170.84 302.407 172.446C307.897 169.948 309.592 168.783 314.385 165.052Z" fill="#765E15"/>
<path d="M277.091 164.234C282.57 166.239 281.767 168.126 287.797 168.146L284.872 166.563C286.492 164.723 297.585 164.526 300.27 165.354C300.937 167.538 301.65 170.419 302.407 172.446C300.39 170.84 298.132 169.167 296.347 167.336C294.562 168.554 290.19 171.386 288.765 172.65C283.995 170.245 280.635 168.221 277.091 164.234Z" fill="#F1DB77"/>
<path d="M269.635 110.861C255.367 92.1821 252.304 73.8079 254.908 51.1118C257.738 25.9672 277.534 7.25836 303.622 11.9005C336.907 17.8157 342.495 52.2799 337.402 80.4492C334.042 99.0433 323.325 112.124 311.452 125.879C297.847 141.638 287.662 134.014 277.09 119.926C274.18 116.776 272.239 114.287 269.635 110.861Z" fill="#886918"/>
<path d="M269.635 110.861C273.352 111.394 277.883 113.251 278.145 117.551L277.09 119.926C274.18 116.776 272.239 114.287 269.635 110.861Z" fill="#AD8223"/>
<path d="M295.643 23.3498C349.365 23.8712 335.437 110.258 298.845 119.034C263.185 118.874 241.844 29.0872 295.643 23.3498Z" fill="#F1DB77"/>
<path d="M273.873 144.099C270.467 138.828 270.518 131.597 272.407 125.726C274.201 125.213 278.114 127.282 280.29 128.16C282.06 130.271 283.672 131.95 284.085 134.63C284.782 139.125 290.227 141.877 292.905 145.547C303.18 148.716 311.28 138.654 317.227 131.817L317.865 131.977C324.157 147.691 300.472 174.297 278.871 151.413C277.223 148.934 275.624 146.508 273.873 144.099Z" fill="#886918"/>
<path d="M273.873 144.099C270.467 138.828 270.518 131.597 272.407 125.726C274.201 125.213 278.114 127.282 280.29 128.16C282.06 130.271 283.672 131.95 284.085 134.63C284.782 139.125 290.227 141.877 292.905 145.547C289.95 144.583 287.767 143.024 285.127 141.383C283.192 142.268 283.837 141.572 283.065 143.471C284.167 146.909 287.175 149.632 289.185 152.801C284.617 150.799 283.755 150.086 278.871 151.413C277.223 148.934 275.624 146.508 273.873 144.099Z" fill="#765E15"/>
<path d="M273.873 144.099C270.467 138.828 270.518 131.597 272.407 125.726C274.201 125.213 278.114 127.282 280.29 128.16C282.06 130.271 283.672 131.95 284.085 134.63C284.782 139.125 290.227 141.877 292.905 145.547C289.95 144.583 287.767 143.024 285.127 141.383C280.26 137.195 278.238 135.023 274.165 130.03C273.219 135.772 272.551 138.339 273.873 144.099Z" fill="#F1DB77"/>
<path d="M338.782 294.732C342.45 293.353 344.685 292.099 348.142 290.216V327.284C348.157 334.435 348.517 347.34 347.107 354.088C345.232 356.617 344.243 358.254 341.558 360.005L340.508 359.936C331.005 362.431 264.181 360.969 251.935 359.782C247.91 357.007 246.45 354.739 245.79 349.971C244.573 335.752 245.415 311.6 244.727 295.8L245.24 291.45C247.479 291.607 252.229 291.643 253.833 292.742C254.489 296.865 254.521 298.781 254.517 302.99L255.578 303.789L258.105 302.31C259.783 302.837 259.632 302.436 260.406 303.447L260.723 301.417C263.496 299.356 264.222 298.596 266.532 296.112C270.099 295.483 273.739 294.651 277.288 293.886L283.147 293.717C279.214 296.583 275.018 299.509 271.167 302.434C275.217 303.497 282.667 299.587 289.935 299.126C301.05 298.481 318.008 298.814 329.085 295.762C329.963 295.518 329.325 295.152 331.56 295.17L331.762 294.536C334.98 295.726 335.43 296.084 337.357 298.926C338.707 297.377 338.205 296.359 338.782 294.732Z" fill="#D0A73A"/>
<path d="M338.782 294.732C342.45 293.353 344.685 292.099 348.142 290.216V327.284C348.157 334.435 348.517 347.34 347.107 354.088C345.232 356.617 344.243 358.254 341.558 360.005L340.508 359.936C331.005 362.431 264.181 360.969 251.935 359.782C247.91 357.007 246.45 354.739 245.79 349.971C244.573 335.752 245.415 311.6 244.727 295.8L245.24 291.45C247.479 291.607 252.229 291.643 253.833 292.742C254.489 296.865 254.521 298.781 254.517 302.99L255.578 303.789L258.105 302.31C259.783 302.837 259.632 302.436 260.406 303.447L260.723 301.417C263.496 299.356 264.222 298.596 266.532 296.112C270.099 295.483 273.739 294.651 277.288 293.886L283.147 293.717C279.214 296.583 275.018 299.509 271.167 302.434C268.717 304.406 266.978 306.697 267.101 309.894C267.41 317.854 264.546 343.259 267.625 349.013C271.037 350.45 271.378 349.88 274.372 350.704L280.357 350.955L284.85 350.755C287.445 350.967 288.57 351.121 291.188 350.712C293.257 348.802 292.62 349.273 293.37 345.962L294.397 348.388L295.695 348.686C297.39 347.4 297.982 345.679 298.957 343.727C299.325 346.396 299.085 348.817 300.607 350.535C307.687 351.433 324.083 350.651 331.605 350.24C331.913 333.743 332.407 311.402 331.56 295.17L331.762 294.536C334.98 295.726 335.43 296.084 337.357 298.926C338.707 297.377 338.205 296.359 338.782 294.732Z" fill="#AD8223"/>
<path d="M331.762 294.536C334.98 295.726 335.43 296.084 337.357 298.926C338.707 297.377 338.205 296.359 338.782 294.732C339.277 300.633 338.64 312.128 338.535 318.437C338.445 330.557 338.445 342.678 338.528 354.797C320.528 354.01 297.825 354.803 279.426 354.768L280.073 354.37L280.2 353.487C274.439 352.34 265.89 354.862 261.307 352.7L261.206 352.089C267.48 351.836 274.298 352.51 280.357 350.955L284.85 350.755C287.445 350.967 288.57 351.121 291.188 350.712C293.257 348.802 292.62 349.273 293.37 345.962L294.397 348.388L295.695 348.686C297.39 347.4 297.982 345.679 298.957 343.727C299.325 346.396 299.085 348.817 300.607 350.535C307.687 351.433 324.083 350.651 331.605 350.24C331.913 333.743 332.407 311.402 331.56 295.17L331.762 294.536Z" fill="#6B440A"/>
<path d="M338.782 294.732C342.45 293.353 344.685 292.099 348.142 290.216V327.284C348.157 334.435 348.517 347.34 347.107 354.088C345.232 356.617 344.243 358.254 341.558 360.005L340.508 359.936C337.575 359.81 335.708 359.605 332.835 359.206L333.54 359.055C324.45 357.928 317.182 357.725 308.055 357.267C313.327 357.271 335.572 358.101 338.625 356.113L338.528 354.797C338.445 342.678 338.445 330.557 338.535 318.437C338.64 312.128 339.277 300.633 338.782 294.732Z" fill="#F1DB77"/>
<path d="M277.288 293.886L283.147 293.717C279.214 296.583 275.018 299.509 271.167 302.434C268.717 304.406 266.978 306.697 267.101 309.894C267.41 317.854 264.546 343.259 267.625 349.013C271.037 350.45 271.378 349.88 274.372 350.704L260.188 350.553C260.538 337.457 261.083 316.104 260.406 303.447L260.723 301.417C263.496 299.356 264.222 298.596 266.532 296.112C270.099 295.483 273.739 294.651 277.288 293.886Z" fill="#886918"/>
<path d="M254.517 302.99L255.578 303.789L258.105 302.31C259.783 302.837 259.632 302.436 260.406 303.447C261.083 316.104 260.538 337.457 260.188 350.553L274.372 350.704L280.357 350.955C274.298 352.51 267.48 351.836 261.206 352.089L261.307 352.7C265.89 354.862 274.439 352.34 280.2 353.487L280.073 354.37L279.426 354.768C275.654 354.724 257.839 356.494 256.902 353.929C252.431 341.694 254.279 318.461 254.274 305.126L254.517 302.99Z" fill="#553B0F"/>
<path d="M254.274 305.126C254.279 318.461 252.431 341.694 256.902 353.929C257.839 356.494 275.654 354.724 279.426 354.768C297.825 354.803 320.528 354.01 338.528 354.797L338.625 356.113C335.572 358.101 313.327 357.271 308.055 357.267C293.295 357.331 278.232 357.661 263.496 357.095C260.528 356.981 257.132 356.308 255.126 353.927C250.733 348.712 253.68 313.325 254.274 305.126Z" fill="#DABB63"/>
<path d="M244.727 295.8L245.92 294.428C246.998 295.799 246.687 297.702 246.776 299.789C246.766 307.394 248.239 345.861 245.79 349.971C244.573 335.752 245.415 311.6 244.727 295.8Z" fill="#C69E3C"/>
<path d="M245.24 291.45C247.479 291.607 252.229 291.643 253.833 292.742C252.376 294.738 252.18 295.828 251.577 298.233C249.946 299.737 249.133 299.558 246.776 299.789C246.687 297.702 246.998 295.799 245.92 294.428L244.727 295.8L245.24 291.45Z" fill="#755416"/>
<path d="M271.167 302.434C275.217 303.497 282.667 299.587 289.935 299.126C285.217 303.442 276.482 301.751 276.503 307.684C276.548 320.604 277.666 336.992 282.473 349.128L284.85 350.755L280.357 350.955L274.372 350.704C271.378 349.88 271.037 350.45 267.625 349.013C264.546 343.259 267.41 317.854 267.101 309.894C266.978 306.697 268.717 304.406 271.167 302.434Z" fill="#A27C1E"/>
<path d="M293.37 345.962C293.55 341.019 293.528 330.108 295.778 326.075L296.655 326.533C298.95 332.923 298.725 336.983 298.957 343.727C297.982 345.679 297.39 347.4 295.695 348.686L294.397 348.388L293.37 345.962Z" fill="#553B0F"/>
<path d="M217.773 191.781C219.583 189.954 220.993 188.096 223.372 187.4C224.388 188.451 224.977 193.913 226.943 196.682C231.343 202.878 236.151 204.181 242.71 207.02C243.116 207.55 243.612 208.195 244.195 208.956C245.698 225.971 243.422 257.343 245.172 273.645L246.815 273.749C247.367 274.662 248.779 276.875 249.184 277.723C257.068 279.486 281.377 278.445 290.43 278.285C302.692 278.069 316.717 278.552 328.83 278.193C332.902 278.982 339.66 278.816 343.77 278.067L344.828 279.24C345.945 278.261 346.447 277.744 347.775 277.014C351.247 269.346 346.597 265.896 349.965 258.027L350.737 257.994C351.885 266.365 348.682 271.705 351.067 282.114L350.017 284.465L351.225 285.817C352.102 285.068 353.707 282.972 354.502 281.999C353.512 286.195 353.392 286.982 349.567 289.359C349.095 289.652 348.622 289.938 348.142 290.216C344.685 292.099 342.45 293.353 338.782 294.732C338.205 296.359 338.707 297.377 337.357 298.926C335.43 296.084 334.98 295.726 331.762 294.536L331.56 295.17C329.325 295.152 329.963 295.518 329.085 295.762C318.008 298.814 301.05 298.481 289.935 299.126C282.667 299.587 275.217 303.497 271.167 302.434C275.018 299.509 279.214 296.583 283.147 293.717L277.288 293.886C273.739 294.651 270.099 295.483 266.532 296.112C264.222 298.596 263.496 299.356 260.723 301.417L260.406 303.447C259.632 302.436 259.783 302.837 258.105 302.31L255.578 303.789L254.517 302.99C254.521 298.781 254.489 296.865 253.833 292.742C252.229 291.643 247.479 291.607 245.24 291.45C244.328 290.923 243.424 290.38 242.53 289.822C238.95 287.575 238.921 287.266 237.953 283.016L237.919 281.042C236.755 277.071 237.151 265.498 237.193 260.986C233.11 259.282 231.713 258.615 227.994 256.247C227.592 255.715 227.206 255.17 226.836 254.613C220.72 245.424 220.679 218.622 222.644 208.947C221.795 207.177 220.603 205.1 219.657 203.337C218.803 199.867 218.29 195.402 217.773 191.781Z" fill="#CEAA34"/>
<path d="M354.502 281.999C353.512 286.195 353.392 286.982 349.567 289.359C349.095 289.652 348.622 289.938 348.142 290.216C344.685 292.099 342.45 293.353 338.782 294.732C338.205 296.359 338.707 297.377 337.357 298.926C335.43 296.084 334.98 295.726 331.762 294.536L331.56 295.17C329.325 295.152 329.963 295.518 329.085 295.762C318.008 298.814 301.05 298.481 289.935 299.126C282.667 299.587 275.217 303.497 271.167 302.434C275.018 299.509 279.214 296.583 283.147 293.717L277.288 293.886C273.739 294.651 270.099 295.483 266.532 296.112C264.222 298.596 263.496 299.356 260.723 301.417L260.406 303.447C259.632 302.436 259.783 302.837 258.105 302.31L255.578 303.789L254.517 302.99C254.521 298.781 254.489 296.865 253.833 292.742C252.229 291.643 247.479 291.607 245.24 291.45C244.328 290.923 243.424 290.38 242.53 289.822C238.95 287.575 238.921 287.266 237.953 283.016C238.921 283.978 242.105 287.192 243.334 287.314C270.155 289.985 297.727 288.006 324.727 288.583C330 288.696 348.247 289.345 351.225 285.817C352.102 285.068 353.707 282.972 354.502 281.999Z" fill="#321D0B"/>
<path d="M283.147 293.717C289.852 292.889 327.195 292.672 331.762 294.536L331.56 295.17C329.325 295.152 329.963 295.518 329.085 295.762C318.008 298.814 301.05 298.481 289.935 299.126C282.667 299.587 275.217 303.497 271.167 302.434C275.018 299.509 279.214 296.583 283.147 293.717Z" fill="#AD8223"/>
<path d="M253.833 292.742C265.642 296.951 267.792 292.951 277.288 293.886C273.739 294.651 270.099 295.483 266.532 296.112C264.222 298.596 263.496 299.356 260.723 301.417L260.406 303.447C259.632 302.436 259.783 302.837 258.105 302.31L255.578 303.789L254.517 302.99C254.521 298.781 254.489 296.865 253.833 292.742Z" fill="#4E2D0E"/>
<path d="M222.644 208.947L223.345 210.387L224.019 209.905C227.516 210.998 229.528 210.785 231.348 213.079C233.321 222.66 230.91 238.148 232.253 247.633C233.515 249.987 234.079 252.06 236.07 253.208L237.259 251.724L237.193 260.986C233.11 259.282 231.713 258.615 227.994 256.247C227.592 255.715 227.206 255.17 226.836 254.613C220.72 245.424 220.679 218.622 222.644 208.947Z" fill="#C69E3C"/>
<path d="M222.644 208.947L223.345 210.387C222.01 219.684 222.869 235.102 223.7 244.629C224.952 242.111 224.725 240.658 226.647 238.415C231.549 239.433 228.432 247.894 231.536 249.316L232.253 247.633C233.515 249.987 234.079 252.06 236.07 253.208L237.259 251.724L237.193 260.986C233.11 259.282 231.713 258.615 227.994 256.247C227.592 255.715 227.206 255.17 226.836 254.613C220.72 245.424 220.679 218.622 222.644 208.947Z" fill="#AD8223"/>
<path d="M224.019 209.905L224.059 207.675C227.804 205.906 236.119 209.913 236.635 212.713C238.654 223.646 236.625 240.975 237.259 251.724L236.07 253.208C234.079 252.06 233.515 249.987 232.253 247.633C230.91 238.148 233.321 222.66 231.348 213.079C229.528 210.785 227.516 210.998 224.019 209.905Z" fill="#5B3B14"/>
<path d="M245.172 273.645L246.815 273.749C247.367 274.662 248.779 276.875 249.184 277.723C257.068 279.486 281.377 278.445 290.43 278.285C302.692 278.069 316.717 278.552 328.83 278.193C332.902 278.982 339.66 278.816 343.77 278.067L344.828 279.24C340.02 283.269 284.22 279.468 274.296 280.756C268.332 281.53 247.202 282.262 245.172 273.645Z" fill="#F4EB9F"/>
<path d="M237.259 251.724C238.996 255.559 237.823 256.571 239.639 260.084C239.422 258.453 239.191 256.823 238.948 255.195C241.204 262.636 242.269 274.194 237.919 281.042C236.755 277.071 237.151 265.498 237.193 260.986L237.259 251.724Z" fill="#C69E3C"/>
<path d="M327.09 146.306C343.732 156.098 359.213 158.438 364.89 178.973C372.645 206.985 348.832 196.762 345.787 211.745C347.235 219.35 345.863 225.054 346.328 232.424L350.287 232.818L351.795 230.835C351.975 232.877 352.447 241.57 352.725 242.888C352.56 245.706 352.177 250.004 352.207 252.703C354.69 255.889 352.14 257.158 354.21 260.948L354.165 262.711C354.24 268.282 354.097 276.663 354.502 281.999C353.707 282.972 352.102 285.068 351.225 285.817L350.017 284.465L351.067 282.114C348.682 271.705 351.885 266.365 350.737 257.994L349.965 258.027C346.597 265.896 351.247 269.346 347.775 277.014C346.447 277.744 345.945 278.261 344.828 279.24L343.77 278.067C339.66 278.816 332.902 278.982 328.83 278.193C316.717 278.552 302.692 278.069 290.43 278.285C281.377 278.445 257.068 279.486 249.184 277.723C250.702 275.067 250.495 274.495 252.922 273.026C257.083 273.811 258.748 273.858 263.019 273.894C274.523 273.352 303.067 274.85 311.895 273.668C318.937 274.172 331.327 273.532 339.18 273.585C339.51 255.103 337.365 227.85 341.422 210.218C343.185 202.548 352.575 199.199 359.49 195.931C359.557 182.964 360.832 178.686 353.055 168.29C347.85 163.703 337.567 157.639 330.442 156.317C328.702 155.993 328.042 157.21 326.662 158.516C320.347 165.476 312.817 175.162 303.742 177.897L301.552 177.574C303.652 174.524 305.303 175.918 309.03 172.87L304.95 173.858C308.235 171.933 312.705 168.536 314.385 165.052C319.815 158.242 323.4 154.281 327.09 146.306Z" fill="#755416"/>
<path d="M343.77 278.067C347.707 269.464 343.44 225.679 345.787 211.745C347.235 219.35 345.863 225.054 346.328 232.424L350.287 232.818L351.795 230.835C351.975 232.877 352.447 241.57 352.725 242.888C352.56 245.706 352.177 250.004 352.207 252.703C354.69 255.889 352.14 257.158 354.21 260.948L354.165 262.711C354.24 268.282 354.097 276.663 354.502 281.999C353.707 282.972 352.102 285.068 351.225 285.817L350.017 284.465L351.067 282.114C348.682 271.705 351.885 266.365 350.737 257.994L349.965 258.027C346.597 265.896 351.247 269.346 347.775 277.014C346.447 277.744 345.945 278.261 344.828 279.24L343.77 278.067Z" fill="#DABB63"/>
<path d="M352.207 252.703C354.69 255.889 352.14 257.158 354.21 260.948L354.165 262.711C354.24 268.282 354.097 276.663 354.502 281.999C353.707 282.972 352.102 285.068 351.225 285.817L350.017 284.465L351.067 282.114C352.552 276.344 352.207 259.114 352.207 252.703Z" fill="#F1DB77"/>
<path d="M249.184 277.723C250.702 275.067 250.495 274.495 252.922 273.026C257.083 273.811 258.748 273.858 263.019 273.894C276.973 275.792 298.995 273.665 313.62 274.59C316.845 274.793 324.232 274.465 327.007 275.009C316.957 275.681 306.18 274.962 296.767 276.018L296.595 276.914C302.22 278.597 322.012 275.763 328.83 278.193C316.717 278.552 302.692 278.069 290.43 278.285C281.377 278.445 257.068 279.486 249.184 277.723Z" fill="#4E2D0E"/>
<path d="M229.372 173.91C229.602 173.294 229.855 172.688 230.13 172.092C235.075 161.442 254.46 150.547 265.09 146.641L265.848 148.332C264.338 150.478 265.118 149.786 262.411 150.744L262.852 149.857L262.057 151.011L262.945 151.278L263.377 150.564C264.568 151.698 264.802 152.563 265.454 154.055C264.772 154.525 265.078 154.576 264.266 154.42C258.705 153.356 254.14 157.559 249.766 160.362C249.201 160.725 248.729 161.705 248.421 162.293C238.294 170.876 234.395 171.639 233.254 186.393C232.99 189.809 232.762 193.541 234.707 196.531C241.165 201.292 250.176 198.532 252.722 215.489C253.541 220.942 253.255 227.037 253.209 232.631C253.275 239.911 253.883 267.465 252.922 273.026C250.495 274.495 250.702 275.067 249.184 277.723C248.779 276.875 247.367 274.662 246.815 273.749L245.172 273.645C243.422 257.343 245.698 225.971 244.195 208.956C243.612 208.195 243.116 207.55 242.71 207.02C236.151 204.181 231.343 202.878 226.943 196.682C224.977 193.913 224.388 188.451 223.372 187.4C220.993 188.096 219.583 189.954 217.773 191.781C217.543 185.38 217.636 181.36 219.181 175.158C219.682 178.591 218.939 182.843 219.696 184.359C223.129 183.614 225.574 179.88 225.884 176.443C225.904 177.819 225.767 178.252 226.229 179.514C227.099 177.038 227.014 175.199 229.372 173.91Z" fill="#755416"/>
<path d="M245.23 205.713C248.295 209.257 247.575 221.076 247.488 225.964C247.206 241.862 247.339 257.864 246.815 273.749L245.172 273.645C243.422 257.343 245.698 225.971 244.195 208.956C243.612 208.195 243.116 207.55 242.71 207.02L245.23 205.713Z" fill="#DABB63"/>
<path d="M219.181 175.158C219.682 178.591 218.939 182.843 219.696 184.359C223.129 183.614 225.574 179.88 225.884 176.443C225.904 177.819 225.767 178.252 226.229 179.514C227.099 177.038 227.014 175.199 229.372 173.91C228.442 179.057 225.851 191.293 228.78 195.509C231.806 199.866 241.496 202.802 245.23 205.713L242.71 207.02C236.151 204.181 231.343 202.878 226.943 196.682C224.977 193.913 224.388 188.451 223.372 187.4C220.993 188.096 219.583 189.954 217.773 191.781C217.543 185.38 217.636 181.36 219.181 175.158Z" fill="#F1DB77"/>
<path d="M253.209 232.631L254.167 229.314C255.145 232.615 254.468 244.658 254.983 246.158C258.047 255.094 277.706 266.108 285.15 270.768C292.732 275.514 308.062 269.918 311.895 273.668C303.067 274.85 274.523 273.352 263.019 273.894C258.748 273.858 257.083 273.811 252.922 273.026C253.883 267.465 253.275 239.911 253.209 232.631Z" fill="#B38A2A"/>
<path d="M326.662 158.516C328.042 157.21 328.702 155.993 330.442 156.317C337.567 157.639 347.85 163.703 353.055 168.29C351.457 170.712 351.045 171.708 348.555 173.246C341.813 174.801 339.083 171.331 334.095 167.927C328.883 164.373 329.932 162.242 326.662 158.516Z" fill="#F4EB9F"/>
<path d="M265.848 148.332C268.629 153.009 273.016 160.862 277.091 164.234C280.635 168.221 283.995 170.245 288.765 172.65C286.432 174.272 285.03 174.205 282.21 174.585C274.48 168.194 269.87 162.423 263.443 154.768C258.9 156.765 252.97 159.978 248.421 162.293C248.729 161.705 249.201 160.725 249.766 160.362C254.14 157.559 258.705 153.356 264.266 154.42C265.078 154.576 264.772 154.525 265.454 154.055C264.802 152.563 264.568 151.698 263.377 150.564L262.945 151.278L262.057 151.011L262.852 149.857L262.411 150.744C265.118 149.786 264.338 150.478 265.848 148.332Z" fill="#886918"/>
<path d="M316.2 186.901L314.145 187.674L313.845 186.307C315.982 183.571 318.84 181.677 321.907 180.091C324.307 182.632 327.157 186.397 330.337 186.95C331.245 185.27 332.422 182.41 333.982 181.674L335.407 182.329L335.865 183.683C332.775 188.968 333.742 188.614 334.657 194.317C335.73 201.044 330.262 206.119 325.17 209.497C319.26 208.488 303.93 202.92 312.817 195.342C312.825 191.911 314.445 189.768 316.2 186.901Z" fill="#C69E3C"/>
<path d="M316.2 186.901C323.017 185.353 327.96 186.6 327.743 194.981L327.75 195.763C325.455 208.126 315.63 205.88 312.817 195.342C312.825 191.911 314.445 189.768 316.2 186.901Z" fill="#886918"/>
<path d="M327.75 195.763C323.573 196.987 321.757 199.539 317.767 197.399C318.262 194.792 321.592 190.584 324.42 191.178L325.785 194.394L327.743 194.981L327.75 195.763Z" fill="#AD8223"/>
<path d="M251.935 359.782C264.181 360.969 331.005 362.431 340.508 359.936L341.558 360.005C338.048 367.065 342.285 378.369 340.028 383.561C339.863 386.659 339.308 389.337 340.785 391.904C342.338 392.922 343.26 393.522 344.91 394.354L346.223 395.63C354.308 401.021 350.572 415.227 349.447 423.72C348.195 433.227 347.385 444.223 345.21 453.353C345.255 464.656 345.473 484.21 337.793 493.094C334.395 497.024 327.683 497.754 322.763 498.039C312.233 498.652 301.41 498.237 290.842 498.238C282.637 498.24 273.846 498.877 265.729 497.787C262.051 497.292 256.319 496.018 253.619 493.252C248.192 487.688 243.079 423.103 242.698 411.543C245.344 417.867 246.468 440.642 248.619 449.761C250.793 446.272 245.715 415.259 244.95 408.522C242.373 403.951 245.707 399.168 249.931 397.09C252.517 396.424 270.928 396.564 275.16 396.483C276.623 395.444 278.995 394.873 280.77 394.32L276.529 393.79C268.288 394.209 260.86 394.327 252.657 393.37L254.011 390.877C253.181 383.718 254.105 370.333 254.473 362.646L251.935 359.782Z" fill="#E6C546"/>
<path d="M251.846 403.838C279.96 403.78 314.467 403.117 342.225 404.189C340.08 428.649 332.49 458.313 331.215 482.16L331.455 483.582C326.145 489.633 298.83 484.319 290.678 486.529C284.183 486.574 266.973 487.489 262.051 484.883C260.036 481.295 254.9 443.776 254.469 437.254L255.492 430.135C254.383 421.551 252.802 412.251 251.846 403.838Z" fill="#6B440A"/>
<path d="M255.492 430.135C256.475 437.725 260.902 479.748 264.176 483.256C269.122 485.043 324.18 484.904 329.137 483.006L329.805 482.755C330.277 482.556 330.743 482.358 331.215 482.16L331.455 483.582C326.145 489.633 298.83 484.319 290.678 486.529C284.183 486.574 266.973 487.489 262.051 484.883C260.036 481.295 254.9 443.776 254.469 437.254L255.492 430.135Z" fill="#F1DB77"/>
<path d="M268.434 462.735C273.396 461.169 319.245 461.162 325.59 462.469V465.284C322.732 467.881 283.132 466.013 276.475 466.432C274.445 466.559 271.087 466.054 269.146 465.136C268.954 464.531 268.516 463.3 268.434 462.735Z" fill="#C69E3C"/>
<path d="M268.434 462.735C273.396 461.169 319.245 461.162 325.59 462.469C322.59 464.011 272.966 464.037 268.434 462.735Z" fill="#DABB63"/>
<path d="M271.943 471.253C284.76 470.918 309.742 471.043 323.865 471.241C324.382 471.632 324.908 472.022 325.433 472.413C325.62 474.673 325.868 473.638 324.593 475.598L322.86 475.81C316.192 475.833 273.304 476.148 269.28 474.667L268.862 473.502C270.01 471.496 269.348 472.151 271.943 471.253Z" fill="#C69E3C"/>
<path d="M267.815 453.825C274.529 453.424 321.495 452.89 325.403 454.112L326.235 457.314C318.952 457.253 271.36 458.005 268.312 456.374L267.815 453.825Z" fill="#DABB63"/>
<path d="M251.935 359.782C264.181 360.969 331.005 362.431 340.508 359.936L341.558 360.005C338.048 367.065 342.285 378.369 340.028 383.561L339.097 383.83L339.285 391.847L335.385 391.363C332.865 391.567 332.227 391.758 329.842 391.126C328.447 388.828 328.935 387.65 328.875 384.611C326.91 385.303 324.712 386.141 322.717 386.65C322.485 389.468 322.995 389.737 321.472 391.124L320.302 391.372C313.59 391.696 305.16 391.518 298.312 391.569L297.937 390.54L295.897 393.047L294.697 393.152L293.295 391.518L292.635 391.581C287.272 393.093 275.63 391.538 271.111 392.903C273.295 393.684 274.177 393.627 276.529 393.79C268.288 394.209 260.86 394.327 252.657 393.37L254.011 390.877C253.181 383.718 254.105 370.333 254.473 362.646L251.935 359.782Z" fill="#390C09"/>
<path d="M254.473 362.646C259.087 365.156 259.657 364.136 263.528 365.369C264.407 368.652 263.899 368.982 266.201 370.829C268.468 370.234 268.527 369.991 270.138 368.136L270.576 366.178C272.856 364.987 289.86 365.263 293.332 365.256L297.787 365.445L297.953 368.231L297.937 390.54L295.897 393.047L294.697 393.152L293.295 391.518L292.635 391.581C287.272 393.093 275.63 391.538 271.111 392.903C273.295 393.684 274.177 393.627 276.529 393.79C268.288 394.209 260.86 394.327 252.657 393.37L254.011 390.877C253.181 383.718 254.105 370.333 254.473 362.646Z" fill="#AD8223"/>
<path d="M254.473 362.646C259.087 365.156 259.657 364.136 263.528 365.369C263.037 372.445 264.109 383.708 264.038 391.856C261.272 392 256.689 392.534 254.34 391.614L254.011 390.877C253.181 383.718 254.105 370.333 254.473 362.646Z" fill="#AD8223"/>
<path d="M263.528 365.369C264.407 368.652 263.899 368.982 266.201 370.829C268.468 370.234 268.527 369.991 270.138 368.136C270.406 375.961 270.572 383.788 270.638 391.617L292.635 391.581C287.272 393.093 275.63 391.538 271.111 392.903C273.295 393.684 274.177 393.627 276.529 393.79C268.288 394.209 260.86 394.327 252.657 393.37L254.011 390.877L254.34 391.614C256.689 392.534 261.272 392 264.038 391.856C264.109 383.708 263.037 372.445 263.528 365.369Z" fill="#6B440A"/>
<path d="M293.332 365.256L297.787 365.445L297.953 368.231L297.937 390.54L295.897 393.047L294.697 393.152L293.295 391.518C293.82 384.811 293.745 371.783 293.332 365.256Z" fill="#4E2D0E"/>
<path d="M297.787 365.445C304.215 365.391 316.927 365.649 322.852 365.023L322.62 370.518L322.717 386.65C322.485 389.468 322.995 389.737 321.472 391.124L320.302 391.372C313.59 391.696 305.16 391.518 298.312 391.569L297.937 390.54L297.953 368.231L297.787 365.445Z" fill="#C69E3C"/>
<path d="M297.787 365.445C304.215 365.391 316.927 365.649 322.852 365.023L322.62 370.518L322.717 386.65C322.485 389.468 322.995 389.737 321.472 391.124L320.302 391.372C319.897 386.222 320.302 375.238 320.325 369.652C315.142 369.757 301.913 370.656 297.953 368.231L297.787 365.445Z" fill="#DABB63"/>
<path d="M334.462 363.873L336.9 363.253C339.607 365.669 339.015 379.731 339.097 383.83L339.285 391.847L335.385 391.363C332.865 391.567 332.227 391.758 329.842 391.126C328.447 388.828 328.935 387.65 328.875 384.611C326.91 385.303 324.712 386.141 322.717 386.65L322.62 370.518L322.852 365.023C324.502 365.213 328.012 366.333 328.927 366.237C330.405 365.418 332.827 364.531 334.462 363.873Z" fill="#F1DB77"/>
<path d="M322.62 370.518C325.755 371.209 326.242 371.592 328.852 373.297L328.875 384.611C326.91 385.303 324.712 386.141 322.717 386.65L322.62 370.518Z" fill="#6B440A"/>
<path d="M322.852 365.023C324.502 365.213 328.012 366.333 328.927 366.237C328.935 368.583 328.98 370.957 328.852 373.297C326.242 371.592 325.755 371.209 322.62 370.518L322.852 365.023Z" fill="#4E2D0E"/>
<path d="M244.95 408.522L246.43 408.297C248.514 412.817 249.738 417.394 252.379 421.412C252.801 426.09 253.219 432.907 254.469 437.254C254.9 443.776 260.036 481.295 262.051 484.883C266.973 487.489 284.183 486.574 290.678 486.529C298.733 486.861 322.568 485.397 327.855 488.118C329.19 492.012 326.498 492.493 328.523 493.876C330.908 493.589 331.275 493.479 333.48 492.511C342.45 487.619 343.313 463.477 345.21 453.353C345.255 464.656 345.473 484.21 337.793 493.094C334.395 497.024 327.683 497.754 322.763 498.039C312.233 498.652 301.41 498.237 290.842 498.238C282.637 498.24 273.846 498.877 265.729 497.787C262.051 497.292 256.319 496.018 253.619 493.252C248.192 487.688 243.079 423.103 242.698 411.543C245.344 417.867 246.468 440.642 248.619 449.761C250.793 446.272 245.715 415.259 244.95 408.522Z" fill="#AD8223"/>
<path d="M242.698 411.543C245.344 417.867 246.468 440.642 248.619 449.761C248.886 455.016 249.779 460.001 250.592 465.758C251.945 475.917 251.149 493.043 265.323 494.241C270.318 494.664 281.212 494.811 286.312 494.212C297.007 492.956 318.908 496.132 328.523 493.876C330.908 493.589 331.275 493.479 333.48 492.511C342.45 487.619 343.313 463.477 345.21 453.353C345.255 464.656 345.473 484.21 337.793 493.094C334.395 497.024 327.683 497.754 322.763 498.039C312.233 498.652 301.41 498.237 290.842 498.238C282.637 498.24 273.846 498.877 265.729 497.787C262.051 497.292 256.319 496.018 253.619 493.252C248.192 487.688 243.079 423.103 242.698 411.543Z" fill="#321D0B"/>
<path d="M339.097 383.83L340.028 383.561C339.863 386.659 339.308 389.337 340.785 391.904C342.338 392.922 343.26 393.522 344.91 394.354L346.223 395.63C342.525 398.441 332.812 397.402 327.615 397.486C311.145 396.497 291.84 396.722 275.16 396.483C276.623 395.444 278.995 394.873 280.77 394.32L276.529 393.79C274.177 393.627 273.295 393.684 271.111 392.903C275.63 391.538 287.272 393.093 292.635 391.581L293.295 391.518L294.697 393.152L295.897 393.047L297.937 390.54L298.312 391.569C305.16 391.518 313.59 391.696 320.302 391.372L321.472 391.124C322.995 389.737 322.485 389.468 322.717 386.65C324.712 386.141 326.91 385.303 328.875 384.611C328.935 387.65 328.447 388.828 329.842 391.126C332.227 391.758 332.865 391.567 335.385 391.363L339.285 391.847L339.097 383.83Z" fill="#553B0F"/>
<path d="M280.77 394.32C301.613 394.144 324.165 393.738 344.91 394.354L346.223 395.63C342.525 398.441 332.812 397.402 327.615 397.486C311.145 396.497 291.84 396.722 275.16 396.483C276.623 395.444 278.995 394.873 280.77 394.32Z" fill="#F4EB9F"/>
<path d="M328.875 384.611C328.935 387.65 328.447 388.828 329.842 391.126C332.227 391.758 332.865 391.567 335.385 391.363L339.285 391.847C335.355 392.681 301.552 392.691 298.312 391.569C305.16 391.518 313.59 391.696 320.302 391.372L321.472 391.124C322.995 389.737 322.485 389.468 322.717 386.65C324.712 386.141 326.91 385.303 328.875 384.611Z" fill="#755416"/>
<path d="M346.223 395.63C354.308 401.021 350.572 415.227 349.447 423.72C348.195 433.227 347.385 444.223 345.21 453.353C343.313 463.477 342.45 487.619 333.48 492.511C333.9 489.925 335.662 487.512 336.705 485.1C339.292 479.07 350.19 403.299 349.32 401.758C345.998 395.89 333.72 399.503 328.2 397.694C328.005 397.63 327.81 397.555 327.615 397.486C332.812 397.402 342.525 398.441 346.223 395.63Z" fill="#F1DB77"/>
<path d="M249.931 397.09C248.435 406.649 251.999 412.062 252.379 421.412C249.738 417.394 248.514 412.817 246.43 408.297L244.95 408.522C242.373 403.951 245.707 399.168 249.931 397.09Z" fill="#C69E3C"/>
<path d="M375.098 176.628C378.218 187.708 377.647 191.114 375.315 202.215C385.515 203.609 394.747 202.707 404.67 203.698C424.237 203.722 451.012 202.9 469.852 203.965L471.795 198.001C475.65 194.847 477.885 195.26 482.648 195.578L485.58 195.646C490.005 194.923 491.048 194.77 495.488 195.499L499.027 195.493C502.905 195.102 504.713 195.048 508.613 195.196L513.098 195.548C516.21 195.53 519.488 195.457 522.585 195.512L526.282 195.515C534.69 194.371 536.467 195.1 541.267 202.22C545.347 203.153 556.942 202.329 561.825 202.182C567.037 201.618 581.662 200.445 585.93 203.842C587.505 205.097 588.96 207.448 589.958 209.229C591.735 214.735 592.492 218.333 592.62 224.165C592.522 244.457 588.525 255.922 565.958 252.699C563.13 252.294 561.345 252.643 558.615 251.257C555.015 250.873 547.395 251.012 543.502 250.965L540.555 250.447C537.51 255.201 535.635 257.646 529.47 256.742C527.647 256.487 525.263 256.363 523.38 256.207C519.803 256.843 518.842 257.011 515.302 256.096C513.562 255.485 512.19 255.604 510.352 255.576C507.757 257.744 504.517 257.317 501.06 257.265L494.887 257.275L487.718 257.192L481.837 256.745L477.997 257.185C473.01 257.305 469.162 256.212 469.11 250.69C463.275 249.667 447.907 250.565 441.42 250.531C422.265 250.434 395.025 252.433 376.343 250.076L374.122 248.853L370.11 249.775L368.242 248.977L368.887 245.288C369.69 234.115 369.203 222.436 369.578 211.217C369.615 210.024 370.965 208.209 371.692 207.276C376.77 196.53 375.915 188.236 375.098 176.628Z" fill="#886918"/>
<path d="M541.267 202.22C545.347 203.153 556.942 202.329 561.825 202.182C567.037 201.618 581.662 200.445 585.93 203.842C587.505 205.097 588.96 207.448 589.958 209.229C591.735 214.735 592.492 218.333 592.62 224.165C592.522 244.457 588.525 255.922 565.958 252.699C563.13 252.294 561.345 252.643 558.615 251.257C555.015 250.873 547.395 251.012 543.502 250.965L540.555 250.447C542.767 243.535 543.285 239.695 544.365 232.576L544.012 231.022C544.905 219.13 543.802 213.446 541.267 202.22Z" fill="#4E2D0E"/>
<path d="M561.825 202.182C567.037 201.618 581.662 200.445 585.93 203.842C587.505 205.097 588.96 207.448 589.958 209.229C591.735 214.735 592.492 218.333 592.62 224.165C592.252 226.655 592.327 227.32 591.022 229.372C582.697 228.896 574.282 228.304 565.95 228.237C565.642 221.76 565.2 215.29 564.615 208.832C563.805 206.176 563.01 204.653 561.825 202.182Z" fill="#F4EB9F"/>
<path d="M561.825 202.182C567.037 201.618 581.662 200.445 585.93 203.842C587.505 205.097 588.96 207.448 589.958 209.229C581.138 208.364 574.537 207.97 565.672 207.826L564.615 208.832C563.805 206.176 563.01 204.653 561.825 202.182Z" fill="#C69E3C"/>
<path d="M552.427 243.048C555.45 243.437 556.44 243.101 559.252 242.196L559.958 243.012C559.5 245.553 558.9 248.715 558.615 251.257C555.015 250.873 547.395 251.012 543.502 250.965C544.342 247.959 544.777 245.217 546.727 242.874C549.585 241.793 548.962 242.195 552.427 243.048Z" fill="#553B0F"/>
<path d="M544.365 232.576C544.71 234.943 544.867 235.565 544.665 237.913L545.355 238.604L546.345 237.217C549.502 238.905 555.158 236.281 559.515 237.701L559.837 238.988C558.022 241.917 556.245 243.848 552.427 243.048C548.962 242.195 549.585 241.793 546.727 242.874C544.777 245.217 544.342 247.959 543.502 250.965L540.555 250.447C542.767 243.535 543.285 239.695 544.365 232.576Z" fill="#321D0B"/>
<path d="M558.863 203.034C562.245 207.661 565.605 225.262 561.21 228.249L547.38 228.237C547.185 224.704 545.415 205.374 546.075 203.774L547.868 203.467L558.863 203.034Z" fill="#F4EB9F"/>
<path d="M566.228 237.237C570.555 237.192 587.43 235.978 589.545 238.884C588.495 241.186 589.32 240.434 587.175 241.383C582.068 242.174 569.28 245.973 565.493 240.742L566.228 237.237Z" fill="#321D0B"/>
<path d="M526.282 195.515C534.69 194.371 536.467 195.1 541.267 202.22C543.802 213.446 544.905 219.13 544.012 231.022L544.365 232.576C543.285 239.695 542.767 243.535 540.555 250.447C537.51 255.201 535.635 257.646 529.47 256.742C527.647 256.487 525.263 256.363 523.38 256.207C519.803 256.843 518.842 257.011 515.302 256.096C513.562 255.485 512.19 255.604 510.352 255.576C514.072 249.182 517.5 239.144 516.832 231.66C516.292 231.176 514.335 228.276 513.487 228.064C510.075 227.208 509.572 229.323 508.012 228.912L507.307 224.784C507.645 217.125 506.212 208.006 503.707 200.818L499.027 195.493C502.905 195.102 504.713 195.048 508.613 195.196L513.098 195.548C516.21 195.53 519.488 195.457 522.585 195.512L526.282 195.515Z" fill="#886918"/>
<path d="M499.027 195.493C502.905 195.102 504.713 195.048 508.613 195.196L513.098 195.548C516.21 195.53 519.488 195.457 522.585 195.512C528.285 200.361 528.615 206.296 530.227 213.7L529.155 215.411C524.115 216.219 524.58 216.449 522.337 221.332L521.497 220.236L520.703 218.463C520.703 220.656 521.077 227.628 520.605 229.09C519.982 232.967 519.263 236.828 518.453 240.671C517.53 235.963 517.56 235.063 518.1 230.259C517.117 230.559 517.477 230.313 516.93 230.843L516.832 231.66C516.292 231.176 514.335 228.276 513.487 228.064C510.075 227.208 509.572 229.323 508.012 228.912L507.307 224.784C507.645 217.125 506.212 208.006 503.707 200.818L499.027 195.493Z" fill="#F4EB9F"/>
<path d="M513.098 195.548C516.21 195.53 519.488 195.457 522.585 195.512C528.285 200.361 528.615 206.296 530.227 213.7L529.155 215.411C524.115 216.219 524.58 216.449 522.337 221.332L521.497 220.236L520.703 218.463C520.875 211.925 518.527 204.046 514.83 198.586C513.847 197.138 513.773 197.308 513.098 195.548Z" fill="#F4EB9F"/>
<path d="M508.613 195.196L513.098 195.548C513.773 197.308 513.847 197.138 514.83 198.586C518.527 204.046 520.875 211.925 520.703 218.463C520.703 220.656 521.077 227.628 520.605 229.09C519.982 232.967 519.263 236.828 518.453 240.671C517.53 235.963 517.56 235.063 518.1 230.259C517.117 230.559 517.477 230.313 516.93 230.843C516.652 218.966 518.977 210.784 512.1 198.433L508.613 195.196Z" fill="#4E2D0E"/>
<path d="M499.027 195.493C502.905 195.102 504.713 195.048 508.613 195.196L512.1 198.433C510.405 199.572 509.512 200.399 508.17 201.938L505.762 199.556C504.067 200.082 504.652 199.554 503.707 200.818L499.027 195.493Z" fill="#F1DB77"/>
<path d="M526.282 195.515C534.69 194.371 536.467 195.1 541.267 202.22C543.802 213.446 544.905 219.13 544.012 231.022C543.75 231.565 543.225 231.976 542.752 232.45C541.485 230.913 541.65 227.622 540.473 224.574C536.873 225.21 538.17 227.144 534.922 227.898C534.022 224.944 534.375 222.565 534.532 219.469C534.36 217.922 533.79 215.467 533.475 213.862C533.34 209.729 531.442 204.16 530.062 200.311L526.282 195.515Z" fill="#F1DB77"/>
<path d="M530.062 200.311C532.418 199.47 533.557 198.738 535.86 199.529C540.69 203.902 541.29 215.984 536.902 220.589C535.485 220.41 535.582 220.445 534.532 219.469C534.36 217.922 533.79 215.467 533.475 213.862C533.34 209.729 531.442 204.16 530.062 200.311Z" fill="#F4EB9F"/>
<path d="M533.475 213.862C533.79 215.467 534.36 217.922 534.532 219.469C534.375 222.565 534.022 224.944 534.922 227.898C538.17 227.144 536.873 225.21 540.473 224.574C541.65 227.622 541.485 230.913 542.752 232.45C543.225 231.976 543.75 231.565 544.012 231.022L544.365 232.576C543.285 239.695 542.767 243.535 540.555 250.447C537.51 255.201 535.635 257.646 529.47 256.742C530.062 253.715 532.05 249.73 532.74 246.033C534.667 235.648 533.82 224.452 533.475 213.862Z" fill="#AD8223"/>
<path d="M538.672 237.239L539.993 237.222C543.368 239.09 540.285 243.945 538.92 246.507C536.775 244.718 536.115 244.268 535.38 241.718C536.243 238.758 535.86 239.775 538.672 237.239Z" fill="#6B440A"/>
<path d="M522.585 195.512L526.282 195.515L530.062 200.311C531.442 204.16 533.34 209.729 533.475 213.862C533.82 224.452 534.667 235.648 532.74 246.033C532.05 249.73 530.062 253.715 529.47 256.742C527.647 256.487 525.263 256.363 523.38 256.207C526.343 250.52 530.302 239.382 530.302 232.853C530.625 225.353 531.3 221.231 530.227 213.7C528.615 206.296 528.285 200.361 522.585 195.512Z" fill="#321E0F"/>
<path d="M530.227 213.7C531.3 221.231 530.625 225.353 530.302 232.853L529.215 232.6C527.775 230.551 527.693 230.217 525.57 229.055C523.32 229.31 524.122 229.093 522.165 230.951L522.818 230.1L521.61 228.958C521.422 226.585 521.512 222.706 521.497 220.236L522.337 221.332C524.58 216.449 524.115 216.219 529.155 215.411L530.227 213.7Z" fill="#F1DB77"/>
<path d="M516.93 230.843C517.477 230.313 517.117 230.559 518.1 230.259C517.56 235.063 517.53 235.963 518.453 240.671C519.263 236.828 519.982 232.967 520.605 229.09C520.5 243.535 520.327 243.528 515.302 256.096C513.562 255.485 512.19 255.604 510.352 255.576C514.072 249.182 517.5 239.144 516.832 231.66L516.93 230.843Z" fill="#15110B"/>
<path d="M523.627 235.661C525.757 236.806 525.982 236.983 527.055 239.144C527.482 243.586 524.835 248.006 522.938 252.189C520.688 251.853 521.482 252.39 520.215 250.983C520.395 245.604 521.79 240.695 523.627 235.661Z" fill="#755416"/>
<path d="M485.58 195.646C490.005 194.923 491.048 194.77 495.488 195.499L499.027 195.493L503.707 200.818C506.212 208.006 507.645 217.125 507.307 224.784L508.012 228.912C509.572 229.323 510.075 227.208 513.487 228.064C514.335 228.276 516.292 231.176 516.832 231.66C517.5 239.144 514.072 249.182 510.352 255.576C507.757 257.744 504.517 257.317 501.06 257.265L494.887 257.275L487.718 257.192L481.837 256.745C486.36 251.655 489.075 241.88 489 235.244C486.75 233.908 488.332 230.697 486.09 228.185C483.772 228.679 482.452 230.423 480.667 232.148C480.097 229.262 479.827 226.78 479.49 223.867C479.535 218.424 479.685 212.116 477.877 206.975L476.947 203.294C475.47 200.364 474.405 199.839 471.795 198.001C475.65 194.847 477.885 195.26 482.648 195.578L485.58 195.646Z" fill="#F4EB9F"/>
<path d="M493.725 225.009L494.205 225.923C496.897 226.507 497.1 224.975 500.662 225.538C501.555 226.439 502.432 227.416 503.415 228.189L503.828 230.594L504.45 229.478C505.012 230.927 504.93 230.987 505.973 232.106L506.97 231.031L507.307 224.784L508.012 228.912C509.572 229.323 510.075 227.208 513.487 228.064C514.335 228.276 516.292 231.176 516.832 231.66C517.5 239.144 514.072 249.182 510.352 255.576C507.757 257.744 504.517 257.317 501.06 257.265L494.887 257.275L487.718 257.192L481.837 256.745C486.36 251.655 489.075 241.88 489 235.244C489.195 231.904 489.675 228.053 490.012 224.68C490.807 228.576 491.182 232.628 490.027 236.493L491.085 237.308L492.188 236.859C492.15 234.391 491.745 228.126 492.727 226.306L493.508 226.804L493.725 225.009Z" fill="#886918"/>
<path d="M507.307 224.784L508.012 228.912C509.572 229.323 510.075 227.208 513.487 228.064C514.335 228.276 516.292 231.176 516.832 231.66C517.5 239.144 514.072 249.182 510.352 255.576C507.757 257.744 504.517 257.317 501.06 257.265C505.747 246.586 507.285 242.682 506.97 231.031L507.307 224.784Z" fill="#755416"/>
<path d="M490.012 224.68C490.807 228.576 491.182 232.628 490.027 236.493L491.085 237.308L492.188 236.859C492.15 234.391 491.745 228.126 492.727 226.306L493.508 226.804C493.56 235.493 493.635 239.791 490.837 248.31C490.192 250.28 487.845 255.893 487.718 257.192L481.837 256.745C486.36 251.655 489.075 241.88 489 235.244C489.195 231.904 489.675 228.053 490.012 224.68Z" fill="#211D11"/>
<path d="M503.828 230.594L504.45 229.478C505.012 230.927 504.93 230.987 505.973 232.106L506.97 231.031C507.285 242.682 505.747 246.586 501.06 257.265L494.887 257.275C501.33 250.807 502.883 239.419 503.828 230.594Z" fill="#211D11"/>
<path d="M476.947 203.294C487.29 203.051 484.597 204.741 489.33 211.559C490.087 216.517 490.02 219.721 490.012 224.68C489.675 228.053 489.195 231.904 489 235.244C486.75 233.908 488.332 230.697 486.09 228.185C483.772 228.679 482.452 230.423 480.667 232.148C480.097 229.262 479.827 226.78 479.49 223.867C479.535 218.424 479.685 212.116 477.877 206.975L476.947 203.294Z" fill="#F4EB9F"/>
<path d="M471.795 198.001C475.65 194.847 477.885 195.26 482.648 195.578L485.58 195.646C493.027 203.455 493.852 214.449 493.725 225.009L493.508 226.804L492.727 226.306C491.745 228.126 492.15 234.391 492.188 236.859L491.085 237.308L490.027 236.493C491.182 232.628 490.807 228.576 490.012 224.68C490.02 219.721 490.087 216.517 489.33 211.559C484.597 204.741 487.29 203.051 476.947 203.294C475.47 200.364 474.405 199.839 471.795 198.001Z" fill="#321D0B"/>
<path d="M471.795 198.001C475.65 194.847 477.885 195.26 482.648 195.578C486.435 200.041 488.527 205.794 489.33 211.559C484.597 204.741 487.29 203.051 476.947 203.294C475.47 200.364 474.405 199.839 471.795 198.001Z" fill="#F1DB77"/>
<path d="M495.488 195.499L499.027 195.493L503.707 200.818C506.212 208.006 507.645 217.125 507.307 224.784L506.97 231.031L505.973 232.106C504.93 230.987 505.012 230.927 504.45 229.478L503.828 230.594L503.415 228.189C503.557 224.729 503.573 221.266 503.46 217.806C503.16 209.593 501.668 201.282 495.488 195.499Z" fill="#553B0F"/>
<path d="M461.1 214.123C464.212 214.058 472.755 213.43 474.84 215.138L475.35 216.369C475.522 220.294 475.672 224.004 475.665 227.931C474.682 228.436 382.26 228.222 372.195 228.055L371.73 214.57C400.777 213.751 431.835 214.257 461.1 214.123Z" fill="#F4EB9F"/>
<path d="M374.783 205.011C377.438 202.431 399.015 203.939 404.67 203.698C424.237 203.722 451.012 202.9 469.852 203.965L469.71 204.296C471.885 205.968 472.072 206.277 473.392 208.692L473.175 210.112C468.915 211.334 456.525 210.755 451.575 210.852C436.08 211.156 419.505 210.253 404.085 210.779C393.78 210.634 383.475 210.59 373.162 210.645C373.725 208.773 374.265 206.896 374.783 205.011Z" fill="#F1DB77"/>
<path d="M374.783 205.011C377.438 202.431 399.015 203.939 404.67 203.698C424.237 203.722 451.012 202.9 469.852 203.965L469.71 204.296L467.385 204.371L467.227 204.848L469.927 206.342L469.305 205.794L468.532 206.755C458.287 206.917 378.338 206.917 374.783 205.011Z" fill="#DABB63"/>
<path d="M460.957 240.79C449.175 241.56 376.8 242.181 371.062 239.721L370.867 238.435C375.165 234.594 444.93 237.255 453.607 237.415C455.25 239.823 458.077 240.096 460.957 240.79Z" fill="#321D0B"/>
<path d="M471.795 198.001C474.405 199.839 475.47 200.364 476.947 203.294L477.877 206.975C476.19 210.413 480.225 227.147 478.132 228.196C475.207 222.397 477.397 217.331 475.852 214.884C475.192 215.852 475.32 215.344 475.35 216.369L474.84 215.138C472.755 213.43 464.212 214.058 461.1 214.123C458.062 213.267 453.48 213.35 450.232 213.363C428.04 213.448 405.84 213.165 383.647 213.253C380.152 213.266 373.027 214.692 370.59 213.052L371.415 211.674C377.902 211.641 398.1 211.824 403.417 210.901L404.085 210.779C419.505 210.253 436.08 211.156 451.575 210.852C456.525 210.755 468.915 211.334 473.175 210.112L473.392 208.692C472.072 206.277 471.885 205.968 469.71 204.296L469.852 203.965L471.795 198.001Z" fill="#6B440A"/>
<path d="M479.49 223.867C479.827 226.78 480.097 229.262 480.667 232.148C482.452 230.423 483.772 228.679 486.09 228.185C488.332 230.697 486.75 233.908 489 235.244C489.075 241.88 486.36 251.655 481.837 256.745L477.997 257.185C473.01 257.305 469.162 256.212 469.11 250.69C471.795 248.904 472.583 247.724 474.57 245.277L476.205 244.711C477.337 246.013 477.315 245.92 477.922 247.526C478.822 239.64 479.13 231.793 479.49 223.867Z" fill="#755416"/>
<path d="M474.57 245.277L476.205 244.711C477.337 246.013 477.315 245.92 477.922 247.526C476.34 250.577 474.472 252.754 475.26 255.568L477.997 257.185C473.01 257.305 469.162 256.212 469.11 250.69C471.795 248.904 472.583 247.724 474.57 245.277Z" fill="#15110B"/>
<path d="M370.11 249.775C370.785 247.889 371.16 246.841 371.602 244.893C375.54 241.906 452.003 244.048 458.558 247.643C447.638 248.011 378.337 244.905 374.122 248.853L370.11 249.775Z" fill="#765E15"/>
<path d="M477.877 206.975C479.685 212.116 479.535 218.424 479.49 223.867C479.13 231.793 478.822 239.64 477.922 247.526C477.315 245.92 477.337 246.013 476.205 244.711L474.57 245.277C472.373 243.576 471.72 241.03 468.63 241.033C466.095 241.033 463.485 240.883 460.957 240.79C458.077 240.096 455.25 239.823 453.607 237.415C460.972 237.305 467.205 236.478 475.185 236.502C475.582 233.086 475.71 231.379 475.665 227.931C475.672 224.004 475.522 220.294 475.35 216.369C475.32 215.344 475.192 215.852 475.852 214.884C477.397 217.331 475.207 222.397 478.132 228.196C480.225 227.147 476.19 210.413 477.877 206.975Z" fill="#361E0B"/>
<path d="M53.0032 200.988C56.1847 194.753 60.492 193.965 66.75 195.712L67.773 196.515C71.4945 195.649 74.9797 194.636 78.618 195.743C80.1097 196.253 80.7683 196.554 82.3418 196.811C86.3468 195.252 88.5277 194.419 92.7832 196.04L95.427 196.147C100.315 195.014 101.931 194.787 106.987 196.39L108.331 196.428C112.486 195.344 114.322 194.714 118.501 196.415C117.625 198.044 115.25 202.213 114.756 203.752C113.485 210.317 111.985 217.145 111.856 223.832C111.871 226.52 111.657 234.508 112.426 236.594L112.999 242.001C117.817 241.805 117.991 245.336 119.863 249.655C118.912 252.571 118.341 253.967 118.159 257.1C115.328 257.228 114.735 257.222 111.968 256.654C108.049 256.218 107.411 256.099 103.623 257.195C99.4343 257.252 98.8327 257.155 94.8322 255.903C93.7687 256.102 91.0537 256.528 90.2227 256.915C85.6065 257.059 84.5438 256.936 80.1758 255.593L76.8112 256.055C72.2625 256.904 70.677 257.381 66.3772 255.349C65.118 255.645 63.4327 255.967 62.2665 256.418C56.7607 258.863 52.5772 253.982 50.259 249.741L47.5635 249.746C44.43 250.061 41.2927 250.332 38.1517 250.56C35.3565 251.135 32.6295 251.662 29.8702 252.403C22.818 252.535 10.5585 253.796 5.34151 249.339L3.90225 247.045C1.05975 241.922 0.403485 237.082 0.162735 231.369L0 229.847C0.0615 221.634 0.349478 219.066 2.22748 211.222C8.45698 198.081 18.615 201.4 30.9637 202.629C35.4022 203.457 46.524 202.218 51.8062 201.98L53.0032 200.988Z" fill="#6B440A"/>
<path d="M2.22748 211.222C8.45698 198.081 18.615 201.4 30.9637 202.629C35.4022 203.457 46.524 202.218 51.8062 201.98C47.5155 213.223 46.7303 216.364 47.3183 228.589C47.3783 231.709 47.4285 234.592 47.6722 237.709C47.8965 242.384 48.9457 245.27 50.259 249.741L47.5635 249.746C44.43 250.061 41.2927 250.332 38.1517 250.56C35.3565 251.135 32.6295 251.662 29.8702 252.403C22.818 252.535 10.5585 253.796 5.34151 249.339L3.90225 247.045C1.05975 241.922 0.403485 237.082 0.162735 231.369L0 229.847C0.0615 221.634 0.349478 219.066 2.22748 211.222Z" fill="#4E2D0E"/>
<path d="M0 229.847C0.37725 229.436 1.93722 227.851 2.30022 227.808C8.65797 227.061 19.8503 226.078 25.5878 228.475C25.9868 237.4 26.3295 239.874 28.683 248.755L29.8702 252.403C22.818 252.535 10.5585 253.796 5.34151 249.339L3.90225 247.045C1.05975 241.922 0.403485 237.082 0.162735 231.369L0 229.847Z" fill="#553B0F"/>
<path d="M0 229.847C0.37725 229.436 1.93722 227.851 2.30022 227.808C8.65797 227.061 19.8503 226.078 25.5878 228.475C25.9868 237.4 26.3295 239.874 28.683 248.755L29.8702 252.403C22.818 252.535 10.5585 253.796 5.34151 249.339L3.90225 247.045C10.7513 247.559 20.5897 247.019 25.2502 241.197L25.2892 237.289C24.2775 234.253 23.8057 232.483 23.136 229.369C19.5735 227.19 3.88199 228.312 0.162735 231.369L0 229.847Z" fill="#755416"/>
<path d="M5.34151 249.339C11.6618 248.838 22.044 248.947 28.683 248.755L29.8702 252.403C22.818 252.535 10.5585 253.796 5.34151 249.339Z" fill="#886918"/>
<path d="M25.2502 241.197C19.4572 241.529 9.10574 242.949 4.09349 242.31C2.59274 240.58 3.04424 241.274 2.78699 238.613C5.59574 236.085 20.6917 237.207 25.2892 237.289L25.2502 241.197Z" fill="#321D0B"/>
<path d="M2.22748 211.222C8.45698 198.081 18.615 201.4 30.9637 202.629L28.5975 204.193C26.4473 204.882 25.6327 206.852 24.303 209.08C23.7765 211.8 23.0632 213.681 24.0397 216.181L25.7482 217.863C25.755 221.271 25.509 225.258 25.5878 228.475C19.8503 226.078 8.65797 227.061 2.30022 227.808C1.93722 227.851 0.37725 229.436 0 229.847C0.0615 221.634 0.349478 219.066 2.22748 211.222Z" fill="#F1DB77"/>
<path d="M2.22748 211.222C8.45698 198.081 18.615 201.4 30.9637 202.629L28.5975 204.193C26.4473 204.882 25.6327 206.852 24.303 209.08C15.0277 208.881 10.9822 208.145 2.22748 211.222Z" fill="#C69E3C"/>
<path d="M29.5162 242.848L30.4515 241.24C34.2502 241.933 36.9922 242.291 40.8405 242.656C44.4757 245.4 44.8627 247.018 47.5635 249.746C44.43 250.061 41.2927 250.332 38.1517 250.56C35.9857 250.489 35.7848 250.459 33.6758 249.952C31.2345 248.203 30.6727 245.747 29.5162 242.848Z" fill="#553B0F"/>
<path d="M29.5162 242.848L29.3655 238.622C32.0775 233.754 38.5784 236.606 42.3667 238.599C43.3537 240.695 43.2727 239.648 42.6795 241.838L40.8405 242.656C36.9922 242.291 34.2502 241.933 30.4515 241.24L29.5162 242.848Z" fill="#321D0B"/>
<path d="M24.303 209.08C25.6327 206.852 26.4473 204.882 28.5975 204.193C27.0825 209.493 26.5665 212.511 25.7482 217.863L24.0397 216.181C23.0632 213.681 23.7765 211.8 24.303 209.08Z" fill="#F4EB9F"/>
<path d="M33.522 204.334C37.6035 204.703 43.7242 204.393 47.9632 204.305C44.7772 210.929 44.1322 220.718 43.2097 228.25H28.9635C28.02 218.445 27.8272 212.284 33.522 204.334Z" fill="#F1DB77"/>
<path d="M53.0032 200.988C56.1847 194.753 60.492 193.965 66.75 195.712L67.773 196.515C71.4945 195.649 74.9797 194.636 78.618 195.743C74.4795 201.708 71.628 211.718 71.3783 218.835C71.1525 222.505 70.7295 227.157 70.6988 230.755C71.019 233.41 71.1615 235.736 71.3108 238.387C72.3953 246.784 72.279 248.789 76.8112 256.055C72.2625 256.904 70.677 257.381 66.3772 255.349C65.118 255.645 63.4327 255.967 62.2665 256.418C56.7607 258.863 52.5772 253.982 50.259 249.741C48.9457 245.27 47.8965 242.384 47.6722 237.709C47.4285 234.592 47.3783 231.709 47.3183 228.589C46.7303 216.364 47.5155 213.223 51.8062 201.98L53.0032 200.988Z" fill="#F1DB77"/>
<path d="M60.915 229.633L61.9995 230.538L62.5792 229.152C66.75 228.223 67.2675 228.241 70.6988 230.755C71.019 233.41 71.1615 235.736 71.3108 238.387C72.3953 246.784 72.279 248.789 76.8112 256.055C72.2625 256.904 70.677 257.381 66.3772 255.349C65.118 255.645 63.4327 255.967 62.2665 256.418C60.18 250.984 59.0535 247.992 57.6982 242.255C57.7852 240.19 57.5468 237.503 58.4648 235.972L58.074 235.073C58.3935 236.51 58.8143 239.844 59.6993 240.495L60.4673 235.351L60.915 229.633Z" fill="#755416"/>
<path d="M57.6982 242.255C57.7852 240.19 57.5468 237.503 58.4648 235.972L58.074 235.073C58.3935 236.51 58.8143 239.844 59.6993 240.495L60.4673 235.351C61.9035 242.116 63.4882 249.019 66.3772 255.349C65.118 255.645 63.4327 255.967 62.2665 256.418C60.18 250.984 59.0535 247.992 57.6982 242.255Z" fill="#15110B"/>
<path d="M47.3183 228.589C48.8145 226.134 49.7955 223.519 52.6747 223.235C54.669 224.526 55.2862 225.088 57.0562 226.702L57.027 235.58C57.1695 237.429 57.312 240.552 57.6982 242.255C59.0535 247.992 60.18 250.984 62.2665 256.418C56.7607 258.863 52.5772 253.982 50.259 249.741C48.9457 245.27 47.8965 242.384 47.6722 237.709C47.4285 234.592 47.3783 231.709 47.3183 228.589Z" fill="#886918"/>
<path d="M47.3183 228.589C48.8145 226.134 49.7955 223.519 52.6747 223.235C54.669 224.526 55.2862 225.088 57.0562 226.702L57.027 235.58C54.7792 232.223 54.9622 231.052 52.062 229.298C49.3702 230.766 49.1355 235.218 47.6722 237.709C47.4285 234.592 47.3783 231.709 47.3183 228.589Z" fill="#C69E3C"/>
<path d="M49.986 236.934C52.2623 236.827 52.5773 236.687 54.5858 237.581C57.201 241.567 55.467 246.487 54.5895 251.402C50.9393 248.691 49.7573 241.232 49.986 236.934Z" fill="#553B0F"/>
<path d="M53.0032 200.988C56.1847 194.753 60.492 193.965 66.75 195.712C64.455 197.961 63.1515 199.234 61.1528 201.782C59.0003 210.785 57.4544 217.378 57.0562 226.702C55.2862 225.088 54.669 224.526 52.6747 223.235C49.7955 223.519 48.8145 226.134 47.3183 228.589C46.7303 216.364 47.5155 213.223 51.8062 201.98L53.0032 200.988Z" fill="#F1DB77"/>
<path d="M53.0032 200.988C56.1847 194.753 60.492 193.965 66.75 195.712C64.455 197.961 63.1515 199.234 61.1528 201.782L60.3773 201.904C59.2853 203.709 58.8615 203.702 56.8005 204.572L55.4318 204.01L54.5408 201.364L53.0032 200.988Z" fill="#DABB63"/>
<path d="M66.75 195.712L67.773 196.515L66.5152 200.301C64.0529 204.313 62.7914 207.581 61.8742 212.257C61.3034 218.259 61.1115 223.619 60.915 229.633L60.4673 235.351L59.6993 240.495C58.8143 239.844 58.3935 236.51 58.074 235.073L58.4648 235.972C57.5468 237.503 57.7852 240.19 57.6982 242.255C57.312 240.552 57.1695 237.429 57.027 235.58L57.0562 226.702C57.4544 217.378 59.0003 210.785 61.1528 201.782C63.1515 199.234 64.455 197.961 66.75 195.712Z" fill="#4E2D0E"/>
<path d="M66.5152 200.301C71.0354 204.613 69.6705 212.418 63.0727 212.806L61.8742 212.257C62.7914 207.581 64.0529 204.313 66.5152 200.301Z" fill="#F4EB9F"/>
<path d="M108.331 196.428C112.486 195.344 114.322 194.714 118.501 196.415C117.625 198.044 115.25 202.213 114.756 203.752C113.485 210.317 111.985 217.145 111.856 223.832C111.871 226.52 111.657 234.508 112.426 236.594L112.999 242.001C117.817 241.805 117.991 245.336 119.863 249.655C118.912 252.571 118.341 253.967 118.159 257.1C115.328 257.228 114.735 257.222 111.968 256.654C108.049 256.218 107.411 256.099 103.623 257.195L103.305 255.548L100.501 248.021C99.558 243.588 97.4677 235.472 98.7862 231.432L100.068 231.379C101.018 232.043 100.772 232.513 101.059 234.097L101.947 233.595L102.242 232.853C101.692 227.237 100.885 219.967 101.905 214.498L102.499 210.952L104.88 204.009C105.849 201.756 107.185 199.505 108.382 197.348L108.331 196.428Z" fill="#F1DB77"/>
<path d="M100.501 248.021C99.558 243.588 97.4677 235.472 98.7862 231.432L100.068 231.379C101.018 232.043 100.772 232.513 101.059 234.097L101.947 233.595L102.242 232.853L102.295 234.358C103.774 234.114 104.4 233.535 105.517 232.635C114.834 234.047 107.766 252.802 118.159 257.1C115.328 257.228 114.735 257.222 111.968 256.654C108.049 256.218 107.411 256.099 103.623 257.195L103.305 255.548L100.501 248.021Z" fill="#6B440A"/>
<path d="M100.501 248.021C99.558 243.588 97.4677 235.472 98.7862 231.432L100.068 231.379C101.018 232.043 100.772 232.513 101.059 234.097L101.947 233.595L102.242 232.853L102.295 234.358C102.55 237.092 102.737 240.051 103.275 242.724C104.056 247.12 105.178 251.189 107.878 254.856L111.968 256.654C108.049 256.218 107.411 256.099 103.623 257.195L103.305 255.548L100.501 248.021Z" fill="#211D11"/>
<path d="M103.275 242.724L104.119 242.121C106.502 245.897 111.007 250.793 107.878 254.856C105.178 251.189 104.056 247.12 103.275 242.724Z" fill="#755416"/>
<path d="M101.905 214.498L102.538 229.163C105.082 226.993 105.004 226.36 108.001 225.892C110.086 227.736 110.023 227.961 110.416 231.451C110.817 229.84 111.034 230.276 110.599 229.122C111.664 227.793 111.48 225.469 111.856 223.832C111.871 226.52 111.657 234.508 112.426 236.594L112.999 242.001C117.817 241.805 117.991 245.336 119.863 249.655C118.912 252.571 118.341 253.967 118.159 257.1C107.766 252.802 114.834 234.047 105.517 232.635C104.4 233.535 103.774 234.114 102.295 234.358L102.242 232.853C101.692 227.237 100.885 219.967 101.905 214.498Z" fill="#AD8223"/>
<path d="M112.999 242.001C117.817 241.805 117.991 245.336 119.863 249.655C118.912 252.571 118.341 253.967 118.159 257.1C115.552 250.554 114.301 249.195 112.999 242.001Z" fill="#15110B"/>
<path d="M104.88 204.009C106.588 204.404 108.029 204.265 108.738 205.911C110.411 209.794 108.646 215.023 104.977 216.872C102.067 215.965 102.536 213.765 102.499 210.952L104.88 204.009Z" fill="#EAECE7"/>
<path d="M108.331 196.428C112.486 195.344 114.322 194.714 118.501 196.415C117.625 198.044 115.25 202.213 114.756 203.752C114.035 202.896 113.841 202.884 112.907 202.225L110.465 204.202L109.423 202.93C109.542 200.316 109.794 199.565 108.382 197.348L108.331 196.428Z" fill="#DABB63"/>
<path d="M95.427 196.147C100.315 195.014 101.931 194.787 106.987 196.39C97.068 206.451 98.211 220.283 97.2172 234.498C96.2827 232.102 95.0797 227.896 93.1695 226.699C91.2427 227.927 90.7485 228.892 89.3565 230.766C87.5392 229.391 87.8745 219.151 88.332 216.715C89.0363 209.833 89.655 206.896 92.7458 200.722C93.081 199.648 94.752 197.215 95.427 196.147Z" fill="#C69E3C"/>
<path d="M92.7458 200.722L93.246 201.236C95.0198 203.039 95.595 203.601 97.779 204.983C99.4725 208.851 98.6303 210.255 98.0565 214.797C93.8633 215.292 92.3475 215.505 88.332 216.715C89.0363 209.833 89.655 206.896 92.7458 200.722Z" fill="#F4EB9F"/>
<path d="M82.3418 196.811C86.3468 195.252 88.5277 194.419 92.7832 196.04C83.241 203.923 85.893 219.393 83.4082 223.684C75.849 218.28 80.9204 221.484 76.1632 222.118C71.7697 215.938 77.9723 202.139 82.3418 196.811Z" fill="#F4EB9F"/>
<path d="M88.6372 235.335L89.6857 235.08C90.3405 237.939 90.6255 240.458 92.6895 242.553C94.7932 243.656 94.875 243.749 97.1835 243.679C97.5285 245.155 97.8532 246.637 98.157 248.123L100.501 248.021L103.305 255.548L103.623 257.195C99.4343 257.252 98.8327 257.155 94.8322 255.903C90.5677 250.046 89.2905 242.362 88.6372 235.335Z" fill="#755416"/>
<path d="M100.501 248.021L103.305 255.548C101.482 255.361 101.337 255.138 99.7598 254.273C98.1435 252.093 98.3385 250.859 98.157 248.123L100.501 248.021Z" fill="#886918"/>
<path d="M90.2227 256.915C90.1657 255.055 88.854 253.09 88.2233 251.09C86.121 244.42 83.0827 236.027 84.837 229.063L85.7423 229.145C87.8655 231.594 87.9315 232.26 88.6372 235.335C89.2905 242.362 90.5677 250.046 94.8322 255.903C93.7687 256.102 91.0537 256.528 90.2227 256.915Z" fill="#211D11"/>
<path d="M71.3108 238.387C71.3243 235.922 71.1195 233.86 71.9797 231.58L73.254 232.714L74.3512 231.745C74.8927 234.943 75.2122 236.989 75.4192 240.254L75.3923 242.238C76.3335 247.944 77.076 250.638 80.1758 255.593L76.8112 256.055C72.279 248.789 72.3953 246.784 71.3108 238.387Z" fill="#15110B"/>
<path d="M75.4192 240.254C77.0317 237.994 76.9568 236.389 77.1818 233.745L79.077 232.68C82.653 234.491 83.8815 242.94 83.0302 246.199C81.3405 244.279 77.922 243.537 75.3923 242.238L75.4192 240.254Z" fill="#4E2D0E"/>
<path d="M89.6857 235.08C91.8255 233.258 90.8422 233.553 93.3007 233.675C96.3277 236.066 96.7297 240.059 97.1835 243.679C94.875 243.749 94.7932 243.656 92.6895 242.553C90.6255 240.458 90.3405 237.939 89.6857 235.08Z" fill="#4E2D0E"/>
<path d="M71.3783 218.835L72.9713 217.887C75.0218 220.523 74.3955 227.954 74.3512 231.745L73.254 232.714L71.9797 231.58C71.1195 233.86 71.3243 235.922 71.3108 238.387C71.1615 235.736 71.019 233.41 70.6988 230.755C70.7295 227.157 71.1525 222.505 71.3783 218.835Z" fill="#390C09"/>
<path d="M118.501 196.415C118.195 200.167 117.571 200.589 118.938 203.574C120.055 203.923 120.247 204.067 121.403 204.174C141.637 203.289 163.49 203.812 183.821 203.887C192.406 203.919 210.854 203.52 218.703 204.388L219.657 203.337C220.603 205.1 221.795 207.177 222.644 208.947C220.679 218.622 220.72 245.424 226.836 254.613C227.206 255.17 227.592 255.715 227.994 256.247C224.318 254.158 223.411 253.06 220.594 249.929L211.177 249.55C191.989 250.517 168.727 249.908 149.241 249.671L142.623 249.717C135.037 249.776 127.45 249.756 119.863 249.655C117.991 245.336 117.817 241.805 112.999 242.001L112.426 236.594C111.657 234.508 111.871 226.52 111.856 223.832C111.985 217.145 113.485 210.317 114.756 203.752C115.25 202.213 117.625 198.044 118.501 196.415Z" fill="#4E2D0E"/>
<path d="M121.403 204.174C141.637 203.289 163.49 203.812 183.821 203.887C192.406 203.919 210.854 203.52 218.703 204.388L218.758 206.108C191.637 210.728 160.433 205.953 133.172 207.625C130.241 207.805 123.681 207.596 121.735 209.478L121.369 210.619C118.531 210.728 119.096 211.163 117.433 209.779L117.492 207.977C118.954 205.623 118.997 205.238 121.403 204.174Z" fill="#DABB63"/>
<path d="M143.153 246.283C158.198 242.717 200.897 241.727 214.402 248.466L215.497 248.606C212.953 248.709 212.458 248.23 211.177 249.55C191.989 250.517 168.727 249.908 149.241 249.671L142.623 249.717L145.18 247.082L143.153 246.283Z" fill="#765E15"/>
<path d="M149.241 249.671L146.97 248.547C164.769 246.465 177.058 247.637 194.666 247.198C201.784 247.13 209.921 248.641 214.402 248.466L215.497 248.606C212.953 248.709 212.458 248.23 211.177 249.55C191.989 250.517 168.727 249.908 149.241 249.671Z" fill="#886918"/>
<path d="M218.758 206.108L219.323 209.515L218.612 210.424C209.699 211.412 187.174 211.016 177.325 210.829C159.52 210.492 138.841 211.384 121.369 210.619L121.735 209.478C123.681 207.596 130.241 207.805 133.172 207.625C160.433 205.953 191.637 210.728 218.758 206.108Z" fill="#F1DB77"/>
<path d="M145.082 241.734C170.148 241.37 195.218 241.373 220.284 241.741L220.594 249.929L211.177 249.55C212.458 248.23 212.953 248.709 215.497 248.606L214.402 248.466C200.897 241.727 158.198 242.717 143.153 246.283L141.046 245.168L141.327 243.885L145.082 241.734Z" fill="#755416"/>
<path d="M112.426 236.594L113.29 235.661L113.561 236.065C115.031 238.223 116.049 239.177 117.959 240.945C126.923 241.966 136.038 241.706 145.082 241.734L141.327 243.885L141.046 245.168L143.153 246.283L145.18 247.082L142.623 249.717C135.037 249.776 127.45 249.756 119.863 249.655C117.991 245.336 117.817 241.805 112.999 242.001L112.426 236.594Z" fill="#5C4C16"/>
<path d="M209.641 214.086L220.394 214.114C220.489 218.144 220.911 226.038 218.413 229.211C204.691 230.835 188.584 229.926 174.75 229.786L115.678 229.735C115.256 223.674 115.415 220.307 115.763 214.319C122.676 214.22 129.603 214.024 136.505 214.413C160.884 214.046 185.276 214.423 209.641 214.086Z" fill="#F1DB77"/>
<path d="M136.505 214.413C160.884 214.046 185.276 214.423 209.641 214.086C210.087 216.295 210.541 217.509 209.984 219.658C205.071 223.19 122.923 223.277 117.335 218.657L117.462 217.138C121.365 212.877 130.592 215.765 136.505 214.413Z" fill="#F4EB9F"/>
<path d="M252.657 393.37C260.86 394.327 268.288 394.209 276.529 393.79L280.77 394.32C278.995 394.873 276.623 395.444 275.16 396.483C270.928 396.564 252.517 396.424 249.931 397.09C245.707 399.168 242.373 403.951 244.95 408.522C245.715 415.259 250.793 446.272 248.619 449.761C246.468 440.642 245.344 417.867 242.698 411.543C241.562 401.467 242.764 397.247 252.657 393.37Z" fill="#DABB63"/>
<path d="M368.242 248.977L370.11 249.775L374.122 248.853L376.343 250.076C371.205 250.36 372.465 249.979 368.595 253.766C360.495 261.682 357.832 271.48 354.502 281.999C354.097 276.663 354.24 268.282 354.165 262.711C355.087 260.381 358.612 258.692 361.162 256.778C364.447 254.495 366.217 252.306 368.242 248.977Z" fill="#211D11" fill-opacity="0.988235"/>
</svg>
