<svg xmlns="http://www.w3.org/2000/svg" width="164" height="334" viewBox="0 0 124 252" fill="none" style="overflow:visible">
<!-- Fixed rod (non-rotating) -->
<path d="M100.956 87.438L114.037 93.7189C115.646 94.4919 120.6 96.6489 121.66 97.6976C127.041 103.019 120.952 112.22 116.171 115.266L106.193 112.201C104.706 111.747 102.353 110.949 100.89 110.618L100.73 110.433C100.63 109.691 100.857 87.7307 100.956 87.438Z" fill="#231F20"/>
<!-- <path d="M102.087 87.029L115.045 92.8694C116.666 93.615 121.656 95.6878 122.734 96.7183C128.204 101.948 122.272 111.25 117.543 114.378L107.515 111.482C106.021 111.053 103.745 110.523 102.278 110.208L102.117 110.025C102.008 109.284 101.991 87.3228 102.087 87.029Z" fill="#231F20"/> -->
<!-- Rotating body only -->
<g id="kick-player-body">
  <path d="M60.5625 0.0528588L65.3292 0C66.3938 0.204507 67.4662 0.366166 68.5437 0.484576C69.7681 0.765597 70.8107 1.03114 72.0157 1.38387C79.2621 3.85373 85.0611 8.52808 88.4684 15.4605C91.5815 21.792 92.0545 29.1005 89.7838 35.7805C87.6369 42.0633 83.92 46.3185 78.5393 50.0525C85.0879 52.9934 97.4689 58.2916 100.651 65.2454C102.074 68.3527 103.285 83.6621 102.7 87.029C102.594 87.7708 102.621 109.284 102.729 110.025L102.891 110.208C103.105 117.178 102.435 119.044 100.166 125.36L96.4832 135.625C95.8374 137.318 94.2619 141.553 93.843 143.18C91.838 148.97 89.304 156.671 87.9438 162.626C84.7709 176.521 84.3183 192.485 85.1019 206.678C87.1697 206.583 93.3583 205.974 95.1624 207.199C95.5125 207.437 95.8438 208.835 95.8893 209.328C96.12 211.828 96.1399 214.421 96.253 216.938C96.5852 224.349 96.573 231.772 96.5608 239.19L96.5601 239.605C96.5574 241.274 96.1076 242.082 94.8095 243.273C92.1659 245.697 86.1662 249.676 82.9954 251.051C82.4804 251.274 74.4938 251.34 73.2251 251.367L42.1006 251.948L40.0252 251.962C39.282 252.001 36.6086 252.207 36.1922 251.959C34.6035 251.014 34.3481 246.546 34.3376 245.023C34.3215 242.727 34.3954 240.661 34.5196 238.537C34.9073 231.582 34.6914 224.636 34.5233 217.7C34.3907 212.222 44.8082 208.593 49.0428 207.118L49.1017 207.097C48.2749 199.398 47.5865 191.684 47.0368 183.96C46.7097 179.142 46.6611 173.516 46.0024 168.828C44.7835 160.158 42.3972 150.876 39.7592 142.531C39.2461 140.875 38.7529 139.235 38.1449 137.61C37.2145 134.718 36.1695 131.864 35.0123 129.056C34.2389 127.22 33.0329 124.901 32.4627 123.07C30.8417 117.862 29.8595 112.046 29.0494 106.646C28.3591 102.045 27.6292 97.0211 27.2187 92.3994C25.3109 71.1684 24.7311 65.2454 32.4627 59.9658C34.1085 58.8419 46.6695 51.5215 47.3524 49.6209C41.3648 45.1583 37.381 39.9715 35.8832 32.4963C34.5003 25.5611 35.9182 18.3607 39.8267 12.4677C43.4354 7.06693 48.8214 3.10082 55.0492 1.25805C56.8693 0.713502 58.7006 0.418537 60.5625 0.0528588Z" fill="#D8274A"/>
  <rect x="45" y="33" width="34" height="180" fill="#D8274A" opacity="0.99"/>
  <!-- <path d="M34.5625 0.0528588L39.3292 0C40.3938 0.204507 41.4662 0.366166 42.5437 0.484576C43.7681 0.765597 44.8107 1.03114 46.0157 1.38387C53.2621 3.85373 59.0611 8.52808 62.4684 15.4605C65.5815 21.792 66.0545 29.1005 63.7838 35.7805C61.6369 42.0633 57.92 46.3185 52.5393 50.0525C59.0879 52.9934 71.4689 58.2916 74.6514 65.2454C76.0736 68.3527 77.2853 83.6621 76.7002 87.029C76.5936 87.7708 76.621 109.284 76.7295 110.025L76.8907 110.208C77.1052 117.178 76.435 119.044 74.166 125.36L74.0877 125.577L70.4832 135.625C69.8374 137.318 68.2619 141.553 67.843 143.18C65.838 148.97 63.304 156.671 61.9438 162.626C58.7709 176.521 58.3183 192.485 59.1019 206.678C61.1697 206.583 67.3583 205.974 69.1624 207.199C69.5125 207.437 69.8438 208.835 69.8893 209.328C70.12 211.828 70.1399 214.421 70.253 216.938C70.5852 224.349 70.573 231.772 70.5608 239.19L70.5601 239.605C70.5574 241.274 70.1076 242.082 68.8095 243.273C66.1659 245.697 60.1662 249.676 56.9954 251.051C56.4803 251.274 48.4938 251.34 47.2251 251.367L16.1006 251.948L14.0252 251.962C13.282 252.001 10.6086 252.207 10.1922 251.959C8.60349 251.014 8.34815 246.546 8.33755 245.023C8.32147 242.727 8.39539 240.661 8.51962 238.537C8.90725 231.582 8.69137 224.636 8.52334 217.7C8.39073 212.222 18.8082 208.593 23.0428 207.118L23.1017 207.097C22.2749 199.398 21.5865 191.684 21.0368 183.96C20.7097 179.142 20.6611 173.516 20.0024 168.828C18.7835 160.158 16.3972 150.876 13.7592 142.531C13.2461 140.875 12.7529 139.235 12.1449 137.61C11.2145 134.718 10.1695 131.864 9.0123 129.056C8.23892 127.22 7.03291 124.901 6.46274 123.07C4.84167 117.862 3.8595 112.046 3.04938 106.646C2.35914 102.045 1.62921 97.0211 1.21866 92.3994C-0.689092 71.1684 -1.26887 65.2454 6.46274 59.9658C8.10851 58.8419 20.6695 51.5215 21.3524 49.6209C15.3648 45.1583 11.381 39.9715 9.88321 32.4963C8.50034 25.5611 9.91818 18.3607 13.8267 12.4677C17.4354 7.06693 22.8214 3.10082 29.0492 1.25805C30.8693 0.713502 32.7006 0.418537 34.5625 0.0528588Z" fill="#D8274A"/> -->
  <!-- <path d="M59.7855 0H64.5525C65.6149 0.2163 66.6854 0.38984 67.7615 0.52019C68.9827 0.81477 70.0223 1.09186 71.2233 1.45793C78.4418 4.00799 84.1887 8.74635 87.5189 15.7162C90.5616 22.0818 90.9535 29.395 88.6089 36.0495C86.3924 42.3081 82.6285 46.5218 77.2068 50.1959C83.7224 53.2093 96.0439 58.6444 99.1491 65.6331C100.537 68.756 100.595 76.4912 100.853 80.0713C100.934 81.1948 100.038 82.1604 100.901 82.7531C101.002 83.0347 101.049 83.4032 100.874 83.642C99.6803 85.2757 101.407 85.5716 100.956 87.438C100.857 87.7307 100.63 109.691 100.73 110.433L100.89 110.618C101.028 117.669 100.32 119.489 97.9165 125.955L94.2008 135.963C93.5363 137.647 91.9139 141.865 91.477 143.487C89.4078 149.254 86.7886 156.927 85.3625 162.867C82.0356 176.726 81.4061 192.684 82.0323 206.884C84.101 206.812 90.296 206.272 92.0864 207.517C92.4338 207.759 92.7496 209.161 92.7896 209.654C92.9926 212.156 92.9838 214.749 93.0689 217.267C93.3236 224.82 93.2208 232.381 93.1247 239.937C93.1034 241.605 92.6447 242.408 91.3336 243.584C88.6632 245.979 82.6197 249.892 79.4338 251.231C78.9164 251.449 70.9296 251.426 69.6607 251.439L38.5316 251.675L36.4562 251.666C35.7126 251.697 33.0371 251.873 32.6235 251.621C31.0454 250.658 30.8396 246.187 30.8459 244.664C30.8553 242.369 30.9521 240.303 31.0998 238.181C31.5646 231.23 31.4257 224.282 31.3346 217.345C31.2624 211.84 41.8177 208.32 46.0296 206.905C45.2882 199.197 44.6854 191.476 44.2214 183.746C43.9478 178.925 43.9615 173.298 43.3549 168.604C42.2322 159.92 39.949 150.612 37.4037 142.239C36.9089 140.577 36.434 138.932 35.844 137.3C34.9457 134.398 33.9325 131.533 32.8065 128.711C32.0535 126.868 30.8733 124.535 30.3234 122.698C28.7602 117.472 27.8426 111.646 27.0924 106.237C26.4532 101.629 25.779 96.5971 25.4198 91.9711C28.4996 93.0513 31.5867 94.1114 34.6805 95.1511C41.2645 97.3668 44.3342 97.7121 51.2794 96.2235C61.4243 94.0492 67.0549 80.1611 64.7255 70.8262C62.2965 61.092 51.1696 57.3183 43.3493 52.7672C45.0075 51.6617 45.3227 51.3114 46.0266 49.4185C40.0889 44.8898 36.1629 39.6592 34.748 32.1678C33.4421 25.2177 34.9397 18.0334 38.9133 12.1841C42.5817 6.82373 48.0113 2.91758 54.2592 1.14398C56.0852 0.61965 57.9197 0.34501 59.7855 0Z" fill="#D8274A"/> -->
  <!-- Debug pivot point -->
  <!-- <circle cx="65" cy="88" r="2.5" fill="#00FF00" opacity="0.8" stroke="#00AA00" stroke-width="0.8"/> -->
</g>
<path d="M0 33.3075L38.2939 54.4348L48.5515 60.0779C51.2413 61.5584 53.807 62.8088 56.2232 64.7127C63.0204 70.068 62.4685 78.674 58.519 85.5138C56.5519 88.9207 55.0093 91.3481 50.9049 92.2932C47.7493 93.1101 43.9261 93.4113 40.6831 93.0521C39.6477 92.9376 36.9897 91.9283 35.8679 91.5315L28.3929 88.8954C18.9771 85.6213 9.3594 82.3736 0 78.9794V33.3075Z" fill="#231F20"/>
<!-- <path d="M0 34L38.6465 54.4753L48.9982 59.9438C51.7128 61.3785 54.2992 62.5852 56.7474 64.4479C63.6343 69.6872 63.2284 78.3013 59.3954 85.207C57.4863 88.6468 55.985 91.1 51.8973 92.1145C48.7559 92.9849 44.9384 93.3508 41.6898 93.0466C40.6526 92.9496 37.9778 91.9855 36.8495 91.6078L29.3309 89.0987C19.8609 85.9847 10.1896 82.9005 0.774034 79.6654L0 34Z" fill="#231F20"/> -->

</svg>